#N canvas 249 154 658 481 16;
#X msg 315 -3 \; pd dsp 1;
#X msg 424 -2 \; pd dsp 0;
#X text 346 44 ON;
#X text 451 45 OFF;
#X text 387 -27 AUDIO;
#X obj 9 267 fiddle~ 1024 1 20 3;
#X obj 10 -21 adc~;
#X obj 9 98 *~;
#X obj 36 68 / 100;
#X text 53 -22 Entrada de Audio;
#X obj -12 290 vsl 15 128 0 127 0 0 empty empty empty 0 -9 0 10 -262144
-1 -1 0 1;
#X obj 9 337 pack 0 100;
#X obj 39 40 hsl 128 15 0 127 0 0 empty empty empty -2 -8 0 10 -262144
-1 -1 0 1;
#X obj 55 307 bng 15 250 50 0 empty empty empty 17 7 0 10 -262144 -1
-1;
#X floatatom 60 115 5 0 0 0 - - -;
#X obj 10 223 *~ 1;
#X obj 259 415 sendOSC 12000;
#X msg 389 292 [;
#X msg 292 366 ];
#X msg 259 112 connect localhost 12000;
#X msg 276 141 disconnect;
#X msg 340 328 send /datos \$1 \, send /vel \$2;
#X obj 292 257 t b list b;
#X obj 259 79 loadbang;
#X floatatom 9 398 5 0 0 0 - - -;
#X obj 9 367 line;
#X floatatom 150 399 5 0 0 0 - - -;
#X obj 150 368 line;
#X obj 47 205 tgl 15 0 empty empty empty 17 7 0 10 -262144 -1 -1 0
1;
#X obj 174 11 vsl 15 128 0 127 0 0 empty empty empty 0 -9 0 10 -262144
-1 -1 7000 1;
#X floatatom 174 152 5 0 0 0 - - -;
#X msg 196 41 70;
#X obj 196 12 loadbang;
#N canvas 449 115 486 380 ruido 0;
#X obj 144 167 env~;
#X floatatom 144 203 5 0 0 0 - - -;
#X obj 144 312 tgl 15 0 empty empty empty 17 7 0 10 -262144 -1 -1 0
1;
#X obj 144 284 change;
#X obj 144 105 inlet~;
#X text 60 102 audio in;
#X obj 254 105 inlet;
#X obj 144 338 outlet;
#X text 309 103 umbral nivel;
#X obj 144 248 > 60;
#X text 132 26 UMBRAL RUIDO;
#X connect 0 0 1 0;
#X connect 1 0 9 0;
#X connect 2 0 7 0;
#X connect 3 0 2 0;
#X connect 4 0 0 0;
#X connect 6 0 9 1;
#X connect 9 0 3 0;
#X restore 46 171 pd ruido;
#X obj 292 226 pack;
#X obj 292 189 t b f;
#X obj 150 338 pack 0 50;
#X connect 5 0 10 0;
#X connect 5 0 11 0;
#X connect 5 1 13 0;
#X connect 5 3 36 0;
#X connect 6 0 7 0;
#X connect 7 0 15 0;
#X connect 7 0 33 0;
#X connect 8 0 7 1;
#X connect 8 0 14 0;
#X connect 11 0 25 0;
#X connect 12 0 8 0;
#X connect 15 0 5 0;
#X connect 17 0 16 0;
#X connect 18 0 16 0;
#X connect 19 0 16 0;
#X connect 20 0 16 0;
#X connect 21 0 16 0;
#X connect 22 0 18 0;
#X connect 22 1 21 0;
#X connect 22 2 17 0;
#X connect 23 0 19 0;
#X connect 25 0 24 0;
#X connect 25 0 34 0;
#X connect 27 0 26 0;
#X connect 27 0 35 0;
#X connect 28 0 15 1;
#X connect 29 0 30 0;
#X connect 30 0 33 1;
#X connect 31 0 29 0;
#X connect 32 0 31 0;
#X connect 33 0 28 0;
#X connect 34 0 22 0;
#X connect 35 0 34 0;
#X connect 35 1 34 1;
#X connect 36 0 27 0;
